<mxfile host="app.diagrams.net" modified="2024-04-15T14:15:07.465Z" agent="Mozilla/5.0 (Macintosh; Intel Mac OS X 10_15_7) AppleWebKit/537.36 (KHTML, like Gecko) Chrome/123.0.0.0 Safari/537.36" version="24.2.3" etag="Wl2NpS-yxZ-u-9dVsxsi" type="github">
  <diagram name="Page-1" id="A-9OroKqDIvkVA6F5WEZ">
    <mxGraphModel>
      <root>
        <mxCell id="0" />
        <mxCell id="1" parent="0" />
      </root>
    </mxGraphModel>
  </diagram>
</mxfile>
